**ABCDEFGHIJKLMNOPQRSTUVWXYZabcdefghijklmnopqrstuvwxyz**************************
**PARASOLID !"#$%&'()*+,-./:;<=>?@[\]^_`{|}~0123456789**************************
**PART1;
MC=AMD64;
MC_MODEL=AMD64 Family 25 Model 80 Stepping 0, AuthenticAMD;
MC_ID=unknown;
OS=Windows_NT;
OS_RELEASE=unknown;
FRU=Parasolid Version 32.1, build 255,  1- 1-2021;
APPL=SOLIDWORKS 2021-2021166;
SITE=;
USER=unknown;
FORMAT=text;
GUISE=transmit;
KEY=makeProjectedPlanarWire;
FILE=makeProjectedPlanarWire.x_t;
DATE=Wed Nov 29 22:24:27 2023;
**PART2;
SCH=SCH_3201255_32001;
USFLD_SIZE=0;
**PART3;
**END_OF_HEADER*****************************************************************
T51 : TRANSMIT FILE created by modeller version 320125523 SCH_3201255_32001_1300
6229 0 12 34 CCCCCCI4 mesh1006 0 I8 polyline1008 0 CCCCCCCDI5 owner1040 0 CCCCCC
I13 boundary_mesh1006 0 I17 boundary_polyline1008 0 CCCA16 index_map_offset0 0 1
 dA9 index_map82 0 A17 node_id_index_map82 0 A20 schema_embedding_map82 0 A5 chi
ld12 0 A14 lowest_node_id0 0 1 dA16 mesh_offset_data206 0 Z1 797 0 0 0 0 0 0 0 0
 1e3 1e-8 0 2 0 1 0 3 1 3 4 5 6 0 0 7 8 9 0 0 0 0 0 0 0 13 255 3 154 0 1 0 10 0
 0 7 10 50 255 4 3 0 10 0 0 0 +0 0 0 0 0 1 1 0 0 31 255 5 101 0 8 11 0 0 --.287
 -.017 0 0 0 1 1 0 0 .01 29 255 6 152 0 9 12 0 -.297 -.017 0 19 8 CCCCCCCA5 owne
r12 0 Z7 153 0 1 0 0 3 V0 16 255 8 99 0 ?13 0 14 5 0 0 1 18 255 9 150 0 15 0 16
 6 ?1 17 255 15 0 0 0 0 9 17 18 0 13 +18 16 147 0 19 9 20 12 ?1 17 19 0 21 13 22
 16 23 14 0 24 -18 20 144 0 22 16 25 26 ?1 29 12 149 0 16 26 6 -.287 -.027 0 29
 26 146 0 20 27 12 .287 -.027 0 29 27 143 0 25 28 26 .297 -.017 0 18 25 141 0 29
 20 30 27 ?1 29 28 140 0 30 31 27 .297 .017 0 18 30 138 0 32 25 33 28 ?1 29 31 1
37 0 33 34 28 .287 .027 0 18 33 135 0 35 30 36 31 ?1 29 34 134 0 36 37 31 -.287
 .027 0 18 36 132 0 38 33 39 34 ?1 29 37 131 0 39 40 34 -.297 .017 0 18 39 129 0
 17 36 41 37 ?1 29 40 128 0 41 42 37 .29 .03 0 18 41 126 0 43 39 44 40 ?1 29 42
 125 0 44 45 40 .3 .02 0 18 44 123 0 46 41 47 42 ?1 29 45 122 0 47 48 42 .3 -.02
 0 18 47 120 0 49 44 50 45 ?1 29 48 119 0 50 51 45 .29 -.03 0 18 50 117 0 52 47
 53 48 ?1 29 51 116 0 53 54 48 -.29 -.03 0 18 53 114 0 55 50 56 51 ?1 29 54 113
 0 56 57 51 -.3 -.02 0 18 56 111 0 58 53 59 54 ?1 29 57 110 0 59 60 54 -.3 .02 0
 18 59 108 0 61 56 62 57 ?1 29 60 107 0 62 0 57 -.29 .03 0 18 62 105 0 63 59 0 6
0 ?1 17 63 0 64 61 65 62 43 66 0 67 -15 255 64 7 0 63 10 21 17 61 0 64 58 63 59
 67 68 0 69 +17 65 0 64 63 46 41 70 71 0 0 +17 43 0 0 0 0 41 63 66 0 65 +16 66 9
 0 ?43 68 0 72 0 0 1 17 67 0 0 0 0 62 61 68 0 0 -16 68 15 0 ?61 73 66 74 0 0 1 1
6 73 21 0 ?58 75 68 76 0 0 1 31 74 17 0 68 72 76 0 +-.29 .02 0 0 0 1 1 0 0 .01 3
0 255 72 11 0 66 0 74 0 +179454152687256e-33 .03 0 1 -59818050895752e-31 0 30 76
 23 0 73 74 77 0 +-.3 0 0 0 -1 0 31 77 29 0 75 76 78 0 +-.29 -.02 0 0 0 1 1 0 0
 .01 16 75 27 0 ?55 79 73 77 0 0 1 30 78 35 0 79 77 80 0 +0 -.03 0 1 0 0 16 79 3
3 0 ?52 81 75 78 0 0 1 31 80 41 0 81 78 82 0 +.29 -.02 0 0 0 1 1 0 0 .01 16 81 3
9 0 ?49 83 79 80 0 0 1 30 82 47 0 83 80 84 0 +.3 0 0 0 -1 0 16 83 45 0 ?85 71 81
 82 0 0 1 31 84 53 0 71 82 86 0 +.29 .02 0 0 0 1 1 0 0 .01 16 71 51 0 ?65 18 83
 84 0 0 1 30 86 59 0 18 84 87 0 +-.297 0 0 0 -1 0 16 18 57 0 ?15 88 71 86 0 0 1
 31 87 65 0 88 86 89 0 --.287 .017 0 0 0 1 1 0 0 .01 16 88 63 0 ?38 90 18 87 0 0
 1 30 89 71 0 90 87 91 0 +0 .027 0 1 0 0 16 90 69 0 ?35 92 88 89 0 0 1 31 91 77
 0 92 89 93 0 +.287 .017 0 0 0 1 1 0 0 .01 16 92 75 0 ?94 95 90 91 0 0 1 30 93 8
3 0 95 91 96 0 +.297 0 0 0 -1 0 16 95 81 0 ?29 97 92 93 0 0 1 31 96 89 0 97 93 1
1 0 +.287 -.017 0 0 0 1 1 0 0 .01 16 97 87 0 ?98 14 95 96 0 0 1 30 11 95 0 14 96
 5 0 +0 -.027 0 1 0 0 16 14 93 0 ?23 8 97 11 0 0 1 17 23 0 0 0 0 20 19 14 0 0 +1
7 98 0 0 0 0 25 22 97 0 0 +17 22 0 21 19 29 20 98 97 0 23 -15 21 8 0 17 10 0 17
 29 0 21 22 32 25 99 95 0 98 +17 32 0 21 29 35 30 94 92 0 99 -17 99 0 0 0 0 30 2
9 95 0 0 -17 35 0 21 32 38 33 100 90 0 94 +17 94 0 0 0 0 33 32 92 0 0 +17 38 0 2
1 35 17 36 101 88 0 100 +17 100 0 0 0 0 36 35 90 0 0 -17 17 0 21 38 13 39 15 18
 0 101 -17 101 0 0 0 0 39 38 88 0 0 -17 13 0 21 17 19 9 24 8 0 0 +17 24 0 0 0 0
 16 13 8 0 0 -14 255 10 1 0 ?0 0 64 3 4 +0 0 0 0 3 17 85 0 0 0 0 47 46 83 0 0 +1
7 46 0 64 65 49 44 85 83 0 70 -17 49 0 64 46 52 47 102 81 0 85 +17 70 0 0 0 0 44
 65 71 0 0 -17 52 0 64 49 55 50 103 79 0 102 +17 102 0 0 0 0 50 49 81 0 0 -17 55
 0 64 52 58 53 104 75 0 103 +17 103 0 0 0 0 53 52 79 0 0 -17 58 0 64 55 61 56 69
 73 0 104 +17 104 0 0 0 0 56 55 75 0 0 -17 69 0 0 0 0 59 58 73 0 0 -1 0 
